<?xml version="1.0" encoding="utf-8"?>
<!-- Generator: Adobe Illustrator 20.1.0, SVG Export Plug-In . SVG Version: 6.00 Build 0)  -->
<svg version="1.1" id="Layer_1" xmlns="http://www.w3.org/2000/svg" xmlns:xlink="http://www.w3.org/1999/xlink" x="0px" y="0px"
	 viewBox="0 0 512 512" style="enable-background:new 0 0 512 512;" xml:space="preserve">
<style type="text/css">
	.st0{fill:#FFD05B;}
	.st1{fill:#CE9D2E;}
	.st2{fill:#FCD088;}
	.st3{fill:#71E2EF;}
	.st4{fill:#38C6D9;}
	.st5{fill:#FFEDB5;}
	.st6{fill:#E8CF89;}
	.st7{fill:#366695;}
	.st8{fill:#273B7A;}
	.st9{fill:#121149;}
	.st10{fill:#7F7F7F;}
	.st11{fill:#686867;}
	.st12{fill:#444444;}
	.st13{fill:#D6D6D6;}
	.st14{fill:#A5A5A5;}
	.st15{fill:#A3A3A3;}
	.st16{fill:#898989;}
</style>
<circle class="st0" cx="256" cy="256" r="256"/>
<path class="st1" d="M349.8,494.3c75.2-29.6,132.9-93.8,153.8-172.9L322.2,140l-61.9,138.1l-19.3,3.7l-69.3-4.9l61.6,61.6
	l-12.2,27.2L349.8,494.3z"/>
<rect id="SVGCleanerId_0" x="213.3" y="292.2" class="st2" width="85.3" height="85.3"/>
<g>
	<rect id="SVGCleanerId_0_1_" x="213.3" y="292.2" class="st2" width="85.3" height="85.3"/>
</g>
<path class="st3" d="M199.5,351.5l-45.2,9c-23,4.6-39.6,24.8-39.6,48.3v59.8c40.4,27.1,89.1,42.9,141.4,42.9s100.9-15.8,141.4-42.9
	v-59.8c0-23.5-16.6-43.7-39.6-48.3l-45.2-9l-8-11.7c-1.5-2.2-4.3-3-6.8-2l-41.8,18l-41.5-18c-2.4-1.1-5.2-0.3-6.8,1.9L199.5,351.5z"
	/>
<path class="st4" d="M357.8,360.5l-45.2-9l-8-11.7c-1.5-2.2-4.3-3-6.8-2l-41.8,18l-0.6-0.2v155.9c0.2,0,0.4,0,0.6,0
	c52.3,0,100.9-15.8,141.4-42.9v-59.8C397.4,385.3,380.8,365.1,357.8,360.5z"/>
<path class="st5" d="M344.6,226.6c0.4-4.1,0.7-8.2,0.7-12.1c0-52.3-40-94.6-89.3-94.6s-89.3,42.4-89.3,94.6c0,4,0.2,8,0.7,12.1
	c-8.7,2.3-12.8,15.6-9.2,29.8c3.6,14.3,13.6,24.1,22.3,21.9c0.8-0.2,1.5-0.5,2.3-0.9c16.1,32.4,42.9,58.7,73.3,58.7
	s57.2-26.3,73.3-58.7c0.7,0.4,1.5,0.7,2.3,0.9c8.7,2.2,18.7-7.6,22.3-21.9C357.4,242.1,353.3,228.8,344.6,226.6z"/>
<path class="st6" d="M344.6,226.6c0.4-4.1,0.7-8.2,0.7-12.1c0-52.3-40-94.6-89.3-94.6c-0.2,0-0.4,0-0.6,0v216.3c0.2,0,0.4,0,0.6,0
	c30.3,0,57.2-26.3,73.3-58.7c0.7,0.4,1.5,0.7,2.3,0.9c8.7,2.2,18.7-7.6,22.3-21.9C357.4,242.1,353.3,228.8,344.6,226.6z"/>
<polygon class="st7" points="256,481.5 211.3,401.3 256,356.8 300.7,401.3 "/>
<polygon class="st8" points="300.7,401.3 256,356.8 255.4,357.3 255.4,480.4 256,481.5 "/>
<path class="st9" d="M371.4,360.1l-42.8-5.5L256,400.8l-72.8-46.1l-42.6,5.4c-26.1,4.6-44.9,25-44.9,48.6v46.9
	C139.6,490.9,195.3,512,256,512s116.4-21.1,160.3-56.4v-46.9C416.3,385.1,397.5,364.7,371.4,360.1z"/>
<path class="st10" d="M214.3,290.5l-28.9-53h-6c0,0,4.3,24.6,4.3,46.5s22.8,64.4,64.4,64.4h15.7c41.6,0,64.4-42.5,64.4-64.4
	s4.3-46.5,4.3-46.5h-6l-28.9,53H214.3z"/>
<path class="st11" d="M326.6,237.5l-28.9,53h-42.3v58h8.4c41.6,0,64.4-42.5,64.4-64.4s4.3-46.5,4.3-46.5H326.6z"/>
<g>
	<path class="st12" d="M330.6,216.8c-1.7-1.7-4.4-1.7-6.1,0L308,233.2c-3.6-7.3-11.1-12.4-19.8-12.4c-10.1,0-18.6,6.8-21.3,16.1
		h-21.8c-2.6-9.3-11.2-16.1-21.3-16.1c-8.7,0-16.2,5.1-19.9,12.4l-16.5-16.5c-1.7-1.7-4.4-1.7-6.1,0s-1.7,4.4,0,6.1l20.3,20.3
		c0.1,12.1,10,21.9,22.1,21.9c11.3,0,20.7-8.6,22-19.5h20.4c1.3,11,10.6,19.5,22,19.5c12.1,0,22-9.8,22.1-21.9l20.3-20.3
		C332.3,221.2,332.3,218.5,330.6,216.8z M223.8,256.5c-7.4,0-13.5-6.1-13.5-13.5c0-7.4,6.1-13.5,13.5-13.5c7.4,0,13.5,6.1,13.5,13.5
		C237.3,250.4,231.3,256.5,223.8,256.5z M288.2,256.5c-7.4,0-13.5-6.1-13.5-13.5c0-7.4,6.1-13.5,13.5-13.5s13.5,6.1,13.5,13.5
		C301.7,250.4,295.6,256.5,288.2,256.5z"/>
	<path class="st12" d="M330.6,216.8c-1.7-1.7-4.4-1.7-6.1,0L308,233.2c-3.6-7.3-11.1-12.4-19.8-12.4c-10.1,0-18.6,6.8-21.3,16.1
		h-11.5v8.6h10.8c1.3,11,10.6,19.5,22,19.5c12.1,0,22-9.8,22.1-21.9l20.3-20.3C332.3,221.2,332.3,218.5,330.6,216.8z M288.2,256.5
		c-7.4,0-13.5-6.1-13.5-13.5c0-7.4,6.1-13.5,13.5-13.5s13.5,6.1,13.5,13.5C301.7,250.4,295.6,256.5,288.2,256.5z"/>
</g>
<path class="st13" d="M200.9,166.1c0,0-15.6,1.3-9.7,20.5s-9.6,72.2-9.6,72.2s-0.9-25.7-14.2-32.3c-13.3-6.5-3.6-113.8,88.6-113.8
	S357.9,220,344.6,226.6c-13.3,6.5-14.2,32.3-14.2,32.3s-15.4-53-9.6-72.2c5.8-19.2-9.7-20.5-9.7-20.5S259.9,185.5,200.9,166.1z"/>
<path class="st14" d="M256,112.8c-0.2,0-0.4,0-0.6,0v62c32.8,0,55.6-8.6,55.6-8.6s15.6,1.3,9.7,20.5c-5.8,19.2,9.6,72.2,9.6,72.2
	s0.9-25.7,14.2-32.3C357.9,220,348.2,112.8,256,112.8z"/>
<path class="st15" d="M236.9,286.7c-13.1,8.5-30.3-1.3-30.3-1.3s9.2,17.9,31.7,15.7c8.9-0.9,14.6-4.3,17.1-8v-7.8
	C253,281.6,248.7,279.1,236.9,286.7z"/>
<path class="st16" d="M275.1,286.7c-12.8-8.3-16.7-4.6-19.1-0.6c-0.2-0.3-0.4-0.6-0.6-0.9v7.8c0.2-0.3,0.4-0.6,0.6-0.9
	c2.1,4,8,8,17.6,8.9c22.5,2.2,31.7-15.7,31.7-15.7S288.2,295.2,275.1,286.7z"/>
</svg>
