<svg id="Layer_1" data-name="Layer 1" xmlns="http://www.w3.org/2000/svg" viewBox="0 0 512 512">
  <defs>
    <style>
      .cls-1 {
        fill: #273b7a;
      }

      .cls-2 {
        fill: #121149;
      }

      .cls-3 {
        fill: #fff;
      }

      .cls-4 {
        fill: #d0d1d3;
      }

      .cls-5 {
        fill: #ff7f4f;
      }

      .cls-6 {
        fill: #d35933;
      }

      .cls-7 {
        fill: #ffc61b;
      }

      .cls-8 {
        fill: #eaa22f;
      }

      .cls-9 {
        fill: #b54324;
      }
    </style>
  </defs>
  <title>sermons</title>
  <circle class="cls-1" cx="256" cy="256" r="256"/>
  <path class="cls-2" d="M505.58,313.17,261.68,69.26l-7.18,16.79L239,91.45l21.41,21.41-1.65,55.64H191.45l65.35,65.35-.53,17.78L140,268l76.64,76.64-66.31,62.6L255,512h1C377.73,512,479.61,427,505.58,313.17Z"/>
  <polygon class="cls-3" points="273.03 80.09 261.68 80.09 261.68 69.26 250.32 69.26 250.32 80.09 238.97 80.09 238.97 91.45 250.32 91.45 250.32 126.02 261.68 126.02 261.68 91.45 273.03 91.45 273.03 80.09"/>
  <polygon class="cls-4" points="261.68 80.09 261.68 69.26 255.43 69.26 255.43 126.02 261.68 126.02 261.68 91.45 273.03 91.45 273.03 80.09 261.68 80.09"/>
  <polygon class="cls-5" points="309.52 304.68 202.48 304.68 202.48 161.94 256 121.15 309.52 161.94 309.52 304.68"/>
  <polygon class="cls-6" points="309.52 161.94 256 121.15 255.43 121.59 255.43 304.68 309.52 304.68 309.52 161.94"/>
  <path class="cls-7" d="M314.38,171.55a7.73,7.73,0,0,1-4.7-1.59L256,129.05,202.32,170a7.76,7.76,0,0,1-9.4-12.34l58.38-44.49a7.75,7.75,0,0,1,9.4,0l58.38,44.49a7.76,7.76,0,0,1-4.7,13.93Z"/>
  <path class="cls-8" d="M319.08,157.62,260.7,113.13a7.72,7.72,0,0,0-5.28-1.54v17.9l.57-.44L309.68,170a7.76,7.76,0,1,0,9.4-12.34Z"/>
  <polygon class="cls-6" points="361.7 407.25 150.29 407.25 150.29 259.26 256 216.98 361.7 259.26 361.7 407.25"/>
  <polygon class="cls-9" points="361.7 259.26 256 216.98 255.43 217.21 255.43 407.25 361.7 407.25 361.7 259.26"/>
  <g>
    <path class="cls-7" d="M365.46,270.36a10.34,10.34,0,0,1-3.84-.74L256,227.37,150.38,269.62a10.34,10.34,0,0,1-7.68-19.21L256,205.09l113.31,45.32a10.35,10.35,0,0,1-3.85,20Z"/>
    <circle class="cls-7" cx="256" cy="174.67" r="17.84"/>
    <rect class="cls-7" x="229.24" y="308.46" width="53.51" height="98.78"/>
  </g>
  <g>
    <path class="cls-8" d="M369.31,250.41,256,205.09l-.57.23V227.6l.57-.23,105.63,42.25a10.35,10.35,0,0,0,7.69-19.21Z"/>
    <path class="cls-8" d="M256,156.83l-.57,0v35.62l.57,0a17.84,17.84,0,0,0,0-35.68Z"/>
    <rect class="cls-8" x="255.43" y="308.46" width="27.33" height="98.78"/>
  </g>
</svg>
