<svg id="Layer_1" data-name="Layer 1" xmlns="http://www.w3.org/2000/svg" viewBox="0 0 512 512">
  <defs>
    <style>
      .cls-1 {
        fill: #a7d3ad;
      }

      .cls-2 {
        fill: #85b589;
      }

      .cls-3 {
        fill: #fff;
      }

      .cls-4 {
        fill: #e2e2e2;
      }

      .cls-5 {
        fill: #ff2746;
      }

      .cls-6 {
        fill: #940030;
      }

      .cls-7 {
        fill: #366695;
      }

      .cls-8 {
        fill: #263a7a;
      }
    </style>
  </defs>
  <title>curtain</title>
  <circle class="cls-1" cx="256" cy="256" r="256"/>
  <path class="cls-2" d="M503.73,191.24,412,99.53,100,401.7,205.24,507A257.18,257.18,0,0,0,256,512c141.38,0,256-114.62,256-256A256.42,256.42,0,0,0,503.73,191.24Z"/>
  <g>
    <rect class="cls-3" x="125.98" y="115.67" width="260.02" height="260.02"/>
    <rect class="cls-3" x="125.98" y="115.67" width="129.43" height="260.02"/>
  </g>
  <rect class="cls-4" x="255.43" y="115.67" width="130.59" height="260.02"/>
  <path class="cls-5" d="M230,115.68s-18.38,143.41-104,156l78,130H100v-286Z"/>
  <path class="cls-6" d="M282,115.68s18.39,143.41,104,156l-78,130H412v-286Z"/>
  <g>
    <rect class="cls-7" x="99.99" y="99.53" width="312.03" height="52.01"/>
    <rect class="cls-7" x="99.99" y="99.53" width="155.45" height="52.01"/>
  </g>
  <rect class="cls-8" x="255.43" y="99.53" width="156.58" height="52.01"/>
</svg>
