<svg id="Layer_1" data-name="Layer 1" xmlns="http://www.w3.org/2000/svg" viewBox="0 0 473.65 473.66">
  <defs>
    <style>
      .cls-1 {
        fill: #d7eff2;
      }

      .cls-2 {
        fill: #ddb68c;
      }

      .cls-3 {
        fill: #cca885;
      }

      .cls-4 {
        fill: #c4a860;
      }

      .cls-5 {
        fill: #7f7b79;
      }

      .cls-6 {
        fill: #d6ad29;
      }

      .cls-7 {
        fill: #998779;
      }

      .cls-8 {
        fill: #baa391;
      }

      .cls-9 {
        fill: #d1b399;
      }

      .cls-10 {
        fill: #efc397;
      }

      .cls-11 {
        fill: #cea278;
      }

      .cls-12 {
        fill: #ccb03a;
      }

      .cls-13 {
        fill: #a88a6c;
      }

      .cls-14 {
        fill: #d3aa79;
      }

      .cls-15 {
        fill: #eaded3;
      }

      .cls-16 {
        fill: #c4bfbb;
      }

      .cls-17 {
        fill: #6b6663;
      }

      .cls-18 {
        fill: #a8886d;
      }

      .cls-19 {
        fill: #897664;
      }

      .cls-20 {
        fill: #e5c3a1;
      }
    </style>
  </defs>
  <title>england</title>
  <circle class="cls-1" cx="236.83" cy="236.83" r="236.83"/>
  <path class="cls-2" d="M187.46,355.54V468.47a237.33,237.33,0,0,0,98.94-.05V355.54Z"/>
  <g>
    <path class="cls-3" d="M227.51,376.7v96.72l1.72,0V376.7h-1.72Z"/>
    <path class="cls-3" d="M216.32,376.7v96l1.72.13V376.7h-1.72Z"/>
    <path class="cls-3" d="M256.09,376.7V472.8l1.72-.13v-96Z"/>
    <path class="cls-3" d="M244.9,376.7v96.75c.57,0,1.15,0,1.72,0V376.7Z"/>
    <rect class="cls-3" x="187.46" y="431.4" width="98.94" height="2.2"/>
    <rect class="cls-3" x="187.46" y="445.68" width="98.94" height="2.2"/>
  </g>
  <rect class="cls-4" x="212.47" y="142.55" width="49.74" height="45.9"/>
  <g>
    <polygon class="cls-5" points="258.91 135.96 215.77 135.96 212.47 142.55 262.21 142.55 258.91 135.96"/>
    <path class="cls-5" d="M250.39,129.46s-10.87-42.32-10.87-76.77l-2.23-37.38-2.13,37.38c0,34.17-10.87,76.77-10.87,76.77l-3.3,6.59h32.71Z"/>
  </g>
  <rect class="cls-6" x="217.53" y="150.78" width="39.62" height="32.98"/>
  <rect class="cls-7" x="209.45" y="179.91" width="55.79" height="8.52"/>
  <path class="cls-8" d="M192.51,231v12.22a5.46,5.46,0,0,0,5.46,5.46h79a5.46,5.46,0,0,0,5.46-5.46V231C282.44,227.94,192.51,227.94,192.51,231Z"/>
  <polygon class="cls-9" points="265.18 186.66 209.77 186.66 192.51 230.95 282.44 230.95 265.18 186.66"/>
  <path class="cls-10" d="M192.51,239.93v61.2A5.46,5.46,0,0,0,198,306.6h79a5.46,5.46,0,0,0,5.46-5.46v-61.2C282.44,236.92,192.51,236.92,192.51,239.93Z"/>
  <path class="cls-2" d="M285,263.77h-95.1a6.58,6.58,0,0,0-6.58,6.58V344a6.58,6.58,0,0,0,6.58,6.58H285a6.58,6.58,0,0,0,6.58-6.58V270.35A6.58,6.58,0,0,0,285,263.77Z"/>
  <g>
    <path class="cls-11" d="M283,274.74H192.51c-1.33,0-2.4.7-2.4,1.56v4.59c0,.86,1.07,1.56,2.4,1.56H283c1.32,0,2.4-.7,2.4-1.56V276.3C285.35,275.44,284.27,274.74,283,274.74Z"/>
    <path class="cls-11" d="M283,316.08H192.51c-1.33,0-2.4.7-2.4,1.56v4.59c0,.86,1.07,1.56,2.4,1.56H283c1.32,0,2.4-.7,2.4-1.56v-4.59C285.35,316.77,284.27,316.08,283,316.08Z"/>
    <path class="cls-11" d="M283,295H192.51c-1.33,0-2.4.7-2.4,1.56v4.59c0,.86,1.07,1.56,2.4,1.56H283c1.32,0,2.4-.7,2.4-1.56V296.6C285.35,295.74,284.27,295,283,295Z"/>
  </g>
  <path class="cls-2" d="M285,334.67h-95.1a6.58,6.58,0,0,0-6.58,6.58v10.36a6.58,6.58,0,0,0,6.58,6.58H285a6.58,6.58,0,0,0,6.58-6.58V341.25A6.58,6.58,0,0,0,285,334.67Z"/>
  <rect class="cls-12" x="203.4" y="268.13" width="68.73" height="68.73"/>
  <rect class="cls-13" x="205.05" y="269.81" width="65.4" height="65.41"/>
  <circle class="cls-14" cx="237.46" cy="302.23" r="29.13"/>
  <circle class="cls-15" cx="237.46" cy="302.23" r="26.93"/>
  <g>
    <path class="cls-16" d="M237.48,281.89c-.37,0-.73,0-1.1.06v6c.37,0,.73-.06,1.1-.06s.73,0,1.1.06v-6C238.21,281.92,237.85,281.89,237.48,281.89Z"/>
    <path class="cls-16" d="M220.47,291.11a19.44,19.44,0,0,0-1.1,1.9l5.24,3a14.05,14.05,0,0,1,1.1-1.91Z"/>
    <path class="cls-16" d="M250.35,308.4a13.93,13.93,0,0,1-1.1,1.91l5.24,3a19.44,19.44,0,0,0,1.1-1.9Z"/>
    <path class="cls-16" d="M223.24,301.13h-6c0,.37-.06.73-.06,1.1s0,.73.06,1.1h6c0-.37-.06-.73-.06-1.1S223.21,301.49,223.24,301.13Z"/>
    <path class="cls-16" d="M257.76,301.13h-6c0,.36.06.73.06,1.1s0,.73-.06,1.1h6c0-.37.06-.73.06-1.1S257.78,301.49,257.76,301.13Z"/>
    <path class="cls-16" d="M237.48,316.51c-.37,0-.73,0-1.1-.06v6c.37,0,.73.06,1.1.06s.73,0,1.1-.06v-6C238.21,316.49,237.85,316.51,237.48,316.51Z"/>
    <path class="cls-16" d="M245.5,314a14.52,14.52,0,0,1-1.91,1.08l3,5.25a20.54,20.54,0,0,0,1.91-1.09Z"/>
    <path class="cls-16" d="M228.36,284.07a19.71,19.71,0,0,0-1.91,1.09l3,5.25a14.26,14.26,0,0,1,1.91-1.08Z"/>
    <path class="cls-16" d="M224.58,308.33l-5.25,3a20.08,20.08,0,0,0,1.09,1.91l5.25-3A15,15,0,0,1,224.58,308.33Z"/>
    <path class="cls-16" d="M254.54,291.2l-5.25,3a14.67,14.67,0,0,1,1.08,1.91l5.25-3A20.68,20.68,0,0,0,254.54,291.2Z"/>
    <path class="cls-16" d="M229.4,314l-3,5.24a20.49,20.49,0,0,0,1.9,1.1l3-5.24A14.31,14.31,0,0,1,229.4,314Z"/>
    <path class="cls-16" d="M246.69,284.11l-3,5.24a14.28,14.28,0,0,1,1.9,1.09l3-5.24C248,284.81,247.34,284.45,246.69,284.11Z"/>
    <path class="cls-16" d="M251.71,301.13a14.5,14.5,0,0,0-2.42-6.92,14.38,14.38,0,0,0-3.74-3.75,14.61,14.61,0,0,0-1.9-1.09,14.17,14.17,0,0,0-5.08-1.37c-.37,0-.73-.06-1.1-.06s-.73,0-1.1.06a14.18,14.18,0,0,0-5,1.33,13.77,13.77,0,0,0-1.91,1.08,14.35,14.35,0,0,0-3.75,3.74,13.9,13.9,0,0,0-1.1,1.91,14.13,14.13,0,0,0-1.37,5.08c0,.36-.06.73-.06,1.1s0,.73.06,1.1a14.2,14.2,0,0,0,1.34,5A14,14,0,0,0,229.4,314a14.63,14.63,0,0,0,1.9,1.1,14.15,14.15,0,0,0,5.08,1.36c.37,0,.73.06,1.1.06s.73,0,1.1-.06a14.18,14.18,0,0,0,5-1.33A13.54,13.54,0,0,0,245.5,314a14.39,14.39,0,0,0,3.75-3.73,13.75,13.75,0,0,0,1.1-1.91,14.21,14.21,0,0,0,1.37-5.08c0-.37.06-.73.06-1.1S251.74,301.49,251.71,301.13Zm-2.19,2.2a12.23,12.23,0,0,1-2.18,5.88,12.23,12.23,0,0,1-2.93,2.92,12.4,12.4,0,0,1-1.91,1.09,12.09,12.09,0,0,1-3.92,1c-.36,0-.73.06-1.1.06a10.47,10.47,0,0,1-1.1-.06,12,12,0,0,1-4-1.07,11.73,11.73,0,0,1-1.9-1.1,12.23,12.23,0,0,1-2.92-2.93,12.12,12.12,0,0,1-2.14-5.83c0-.36-.06-.73-.06-1.1s0-.74.06-1.1a12.23,12.23,0,0,1,2.18-5.88,12.23,12.23,0,0,1,2.93-2.92,12.55,12.55,0,0,1,1.91-1.09,11.91,11.91,0,0,1,3.92-1c.36,0,.73-.06,1.1-.06a10.81,10.81,0,0,1,1.1.06,12,12,0,0,1,4,1.08,12.33,12.33,0,0,1,1.9,1.1,12.18,12.18,0,0,1,2.92,2.94,12.12,12.12,0,0,1,2.14,5.83c0,.36.06.73.06,1.1S249.55,303,249.52,303.32Z"/>
    <path class="cls-16" d="M260,301.13a22.32,22.32,0,0,0-2.42-9.11c-.33-.65-.7-1.29-1.09-1.91a22.65,22.65,0,0,0-6.76-6.8,20.71,20.71,0,0,0-1.9-1.1,22.3,22.3,0,0,0-9.21-2.46c-.37,0-.73-.06-1.1-.06s-.73,0-1.1.06a22.3,22.3,0,0,0-9.11,2.42c-.66.33-1.29.7-1.91,1.09a22.65,22.65,0,0,0-6.79,6.76c-.4.61-.77,1.24-1.1,1.9a22.36,22.36,0,0,0-2.46,9.21c0,.37-.06.73-.06,1.1s0,.73.06,1.1a22.32,22.32,0,0,0,2.42,9.11,21.47,21.47,0,0,0,1.09,1.91,22.62,22.62,0,0,0,6.76,6.8,20.71,20.71,0,0,0,1.9,1.1,22.25,22.25,0,0,0,9.21,2.46c.37,0,.73.06,1.1.06s.73,0,1.1-.06a22.36,22.36,0,0,0,9.11-2.41c.66-.34,1.29-.7,1.91-1.09a22.7,22.7,0,0,0,6.8-6.76c.4-.62.77-1.25,1.1-1.9a22.38,22.38,0,0,0,2.46-9.21c0-.37.06-.73.06-1.1S260,301.49,260,301.13Zm-2.2,2.2a20.14,20.14,0,0,1-2.17,8.11,19.38,19.38,0,0,1-1.1,1.9,20.4,20.4,0,0,1-6,6,20.44,20.44,0,0,1-9.93,3.22c-.37,0-.73.06-1.1.06s-.73,0-1.1-.06a20.17,20.17,0,0,1-8.11-2.17c-.65-.34-1.29-.7-1.9-1.1a20.45,20.45,0,0,1-5.95-6,21.53,21.53,0,0,1-1.09-1.91,20.17,20.17,0,0,1-2.13-8c0-.37-.06-.73-.06-1.1s0-.73.06-1.1a20.17,20.17,0,0,1,2.17-8.11,19.38,19.38,0,0,1,1.1-1.9,20.4,20.4,0,0,1,6-6,21,21,0,0,1,1.91-1.09,20.14,20.14,0,0,1,8-2.13c.37,0,.73-.06,1.1-.06s.73,0,1.1.06a20.17,20.17,0,0,1,8.11,2.17c.65.34,1.29.7,1.9,1.1a20.42,20.42,0,0,1,5.95,6,20.91,20.91,0,0,1,1.09,1.91,20.17,20.17,0,0,1,2.13,8c0,.37.06.73.06,1.1S257.78,303,257.76,303.32Z"/>
  </g>
  <g>
    <path class="cls-17" d="M259.81,314.32l-26.89-15.55-.52-1a3.11,3.11,0,0,1-.62.46,4.2,4.2,0,0,1-.86.28,6.48,6.48,0,0,1,.18.81,2.88,2.88,0,0,1-.08.82l1.13-.26,27,15.64a.7.7,0,0,0,.65-.38A.85.85,0,0,0,259.81,314.32Z"/>
    <path class="cls-17" d="M238.78,295.16a1.9,1.9,0,0,1-.44-.79,1.65,1.65,0,0,1-.75.63,1.66,1.66,0,0,0-1.13,1c-.09.33.61,1.46.61,1.46l-2.8,16.48,1.29.22,2.8-16.52s1.18-.55,1.21-1S239.41,295.67,238.78,295.16Z"/>
    <path class="cls-17" d="M236,313.47a1.31,1.31,0,0,1-2.09-.54,1.32,1.32,0,0,0-1.6.94c-.18.7,1.26,3.7,1.58,3.43.15.39,2.88-1.51,3.06-2.21A1.33,1.33,0,0,0,236,313.47Z"/>
    <circle class="cls-17" cx="233.91" cy="317.42" r="0.73"/>
  </g>
  <polygon class="cls-18" points="271.77 336.85 203.73 336.85 195.14 351.33 280.36 351.33 271.77 336.85"/>
  <g>
    <path class="cls-19" d="M211.17,343h-2.78c-.53,0-1,.68-1,1.52v6.84h4.7v-6.84C212.13,343.65,211.7,343,211.17,343Z"/>
    <path class="cls-19" d="M229.39,343h-2.78c-.54,0-1,.68-1,1.52v6.84h4.7v-6.84C230.35,343.65,229.92,343,229.39,343Z"/>
    <path class="cls-19" d="M247.61,343h-2.78c-.53,0-1,.68-1,1.52v6.84h4.7v-6.84C248.57,343.65,248.14,343,247.61,343Z"/>
    <path class="cls-19" d="M265.83,343h-2.78c-.53,0-1,.68-1,1.52v6.84h4.7v-6.84C266.79,343.65,266.36,343,265.83,343Z"/>
    <path class="cls-19" d="M220.28,343H217.5c-.53,0-1,.68-1,1.52v6.84h4.7v-6.84C221.24,343.65,220.81,343,220.28,343Z"/>
    <path class="cls-19" d="M238.5,343h-2.78c-.53,0-1,.68-1,1.52v6.84h4.7v-6.84C239.46,343.65,239,343,238.5,343Z"/>
    <path class="cls-19" d="M256.72,343h-2.78c-.54,0-1,.68-1,1.52v6.84h4.7v-6.84C257.68,343.65,257.25,343,256.72,343Z"/>
    <path class="cls-19" d="M211.17,243h-2.78c-.53,0-1,.68-1,1.52v9.27c0,.84.43,1.52,1,1.52h2.78c.53,0,1-.68,1-1.52v-9.27C212.13,243.71,211.7,243,211.17,243Z"/>
    <path class="cls-19" d="M229.39,243h-2.78c-.54,0-1,.68-1,1.52v9.27c0,.84.43,1.52,1,1.52h2.78c.53,0,1-.68,1-1.52v-9.27C230.35,243.71,229.92,243,229.39,243Z"/>
    <path class="cls-19" d="M247.61,243h-2.78c-.53,0-1,.68-1,1.52v9.27c0,.84.43,1.52,1,1.52h2.78c.53,0,1-.68,1-1.52v-9.27C248.57,243.71,248.14,243,247.61,243Z"/>
    <path class="cls-19" d="M265.83,243h-2.78c-.53,0-1,.68-1,1.52v9.27c0,.84.43,1.52,1,1.52h2.78c.53,0,1-.68,1-1.52v-9.27C266.79,243.71,266.36,243,265.83,243Z"/>
    <path class="cls-19" d="M220.28,243H217.5c-.53,0-1,.68-1,1.52v9.27c0,.84.43,1.52,1,1.52h2.78c.53,0,1-.68,1-1.52v-9.27C221.24,243.71,220.81,243,220.28,243Z"/>
    <path class="cls-19" d="M238.5,243h-2.78c-.53,0-1,.68-1,1.52v9.27c0,.84.43,1.52,1,1.52h2.78c.53,0,1-.68,1-1.52v-9.27C239.46,243.71,239,243,238.5,243Z"/>
    <path class="cls-19" d="M256.72,243h-2.78c-.54,0-1,.68-1,1.52v9.27c0,.84.43,1.52,1,1.52h2.78c.53,0,1-.68,1-1.52v-9.27C257.68,243.71,257.25,243,256.72,243Z"/>
    <path class="cls-19" d="M212.93,213.68h-2.59c-.5,0-.9.55-.9,1.24v7.54c0,.68.4,1.23.9,1.23h2.59c.49,0,.89-.55.89-1.23v-7.54C213.82,214.23,213.43,213.68,212.93,213.68Z"/>
    <path class="cls-19" d="M229.91,213.68h-2.59c-.5,0-.9.55-.9,1.24v7.54c0,.68.4,1.23.9,1.23h2.59c.49,0,.89-.55.89-1.23v-7.54C230.81,214.23,230.41,213.68,229.91,213.68Z"/>
    <path class="cls-19" d="M246.89,213.68h-2.59c-.5,0-.9.55-.9,1.24v7.54c0,.68.4,1.23.9,1.23h2.59c.5,0,.9-.55.9-1.23v-7.54C247.79,214.23,247.39,213.68,246.89,213.68Z"/>
    <path class="cls-19" d="M263.88,213.68h-2.59c-.49,0-.89.55-.89,1.24v7.54c0,.68.4,1.23.89,1.23h2.59c.49,0,.9-.55.9-1.23v-7.54C264.78,214.23,264.37,213.68,263.88,213.68Z"/>
    <path class="cls-19" d="M221.24,194.81h-2.59c-.49,0-.89.55-.89,1.23v7.54c0,.68.4,1.23.89,1.23h2.59c.5,0,.9-.55.9-1.23V196C222.14,195.36,221.73,194.81,221.24,194.81Z"/>
    <path class="cls-19" d="M238.22,194.81h-2.59c-.5,0-.9.55-.9,1.23v7.54c0,.68.4,1.23.9,1.23h2.59c.5,0,.9-.55.9-1.23V196C239.12,195.36,238.72,194.81,238.22,194.81Z"/>
    <path class="cls-19" d="M255.21,194.81h-2.59c-.49,0-.89.55-.89,1.23v7.54c0,.68.4,1.23.89,1.23h2.59c.49,0,.9-.55.9-1.23V196C256.11,195.36,255.7,194.81,255.21,194.81Z"/>
    <path class="cls-19" d="M222.93,152.36h-2.31c-.44,0-.8,1.47-.8,3.28V175.7c0,1.81.36,3.28.8,3.28h2.31c.44,0,.8-1.47.8-3.28V155.64C223.74,153.82,223.38,152.36,222.93,152.36Z"/>
    <path class="cls-19" d="M238.08,152.36h-2.31c-.44,0-.8,1.47-.8,3.28V175.7c0,1.81.35,3.28.8,3.28h2.31c.44,0,.8-1.47.8-3.28V155.64C238.88,153.82,238.52,152.36,238.08,152.36Z"/>
    <path class="cls-19" d="M253.23,152.36h-2.31c-.45,0-.8,1.47-.8,3.28V175.7c0,1.81.35,3.28.8,3.28h2.31c.44,0,.8-1.47.8-3.28V155.64C254,153.82,253.67,152.36,253.23,152.36Z"/>
    <path class="cls-19" d="M230.63,152.36h-2.31c-.44,0-.8,1.47-.8,3.28V175.7c0,1.81.36,3.28.8,3.28h2.31c.44,0,.8-1.47.8-3.28V155.64C231.43,153.82,231.07,152.36,230.63,152.36Z"/>
    <path class="cls-19" d="M245.78,152.36h-2.31c-.44,0-.8,1.47-.8,3.28V175.7c0,1.81.36,3.28.8,3.28h2.31c.44,0,.8-1.47.8-3.28V155.64C246.58,153.82,246.22,152.36,245.78,152.36Z"/>
  </g>
  <path class="cls-20" d="M267.23,366.62H207.45c-3.3,0-6,1.21-6,2.72V376c0,1.5,2.68,2.72,6,2.72h59.77c3.3,0,6-1.22,6-2.72v-6.68C273.2,367.83,270.52,366.62,267.23,366.62Z"/>
  <path class="cls-5" d="M240.56,48.36H234.4c-1,0-1.87.59-1.87,1.32v3c0,.73.83,1.32,1.87,1.32h6.16c1,0,1.87-.59,1.87-1.32v-3C242.42,48.95,241.59,48.36,240.56,48.36Z"/>
  <g>
    <path class="cls-19" d="M211.17,370.27h-2.78c-.53,0-1,.68-1,1.52v6.84h4.7v-6.84C212.13,371,211.7,370.27,211.17,370.27Z"/>
    <path class="cls-19" d="M229.39,370.27h-2.78c-.54,0-1,.68-1,1.52v6.84h4.7v-6.84C230.35,371,229.92,370.27,229.39,370.27Z"/>
    <path class="cls-19" d="M247.61,370.27h-2.78c-.53,0-1,.68-1,1.52v6.84h4.7v-6.84C248.57,371,248.14,370.27,247.61,370.27Z"/>
    <path class="cls-19" d="M265.83,370.27h-2.78c-.53,0-1,.68-1,1.52v6.84h4.7v-6.84C266.79,371,266.36,370.27,265.83,370.27Z"/>
    <path class="cls-19" d="M220.28,370.27H217.5c-.53,0-1,.68-1,1.52v6.84h4.7v-6.84C221.24,371,220.81,370.27,220.28,370.27Z"/>
    <path class="cls-19" d="M238.5,370.27h-2.78c-.53,0-1,.68-1,1.52v6.84h4.7v-6.84C239.46,371,239,370.27,238.5,370.27Z"/>
    <path class="cls-19" d="M256.72,370.27h-2.78c-.54,0-1,.68-1,1.52v6.84h4.7v-6.84C257.68,371,257.25,370.27,256.72,370.27Z"/>
  </g>
</svg>
