<svg id="Layer_1" data-name="Layer 1" xmlns="http://www.w3.org/2000/svg" viewBox="0 0 512 512">
  <defs>
    <style>
      .cls-1 {
        fill: #e16b5a;
      }

      .cls-2 {
        fill: #cc6152;
      }

      .cls-3 {
        fill: #b3b3b3;
      }

      .cls-4 {
        fill: #e6e6e6;
      }

      .cls-5 {
        fill: #f5f5f5;
      }
    </style>
  </defs>
  <title>poetry</title>
  <circle class="cls-1" cx="256" cy="256" r="256"/>
  <path class="cls-2" d="M489.26,310.37c-.28-.68-.53-1.37-.84-2.05s-.52-1.36-.82-2-.54-1.38-.84-2.08-.52-1.33-.8-2-.56-1.42-.86-2.12-.52-1.34-.8-2-.54-1.41-.86-2.1-.51-1.33-.8-2-.55-1.42-.86-2.11-.51-1.34-.8-2-.54-1.41-.85-2.1-.51-1.33-.8-2-.54-1.41-.85-2.09-.53-1.37-.82-2-.53-1.37-.83-2.05-.53-1.37-.83-2-.53-1.38-.83-2.06-.52-1.36-.82-2-.52-1.36-.82-2-.54-1.39-.84-2.08-.52-1.35-.81-2-.54-1.38-.84-2.07-.53-1.38-.83-2.06-.53-1.38-.84-2.06-.52-1.36-.82-2-.53-1.39-.84-2.07-.52-1.35-.81-2-.54-1.4-.84-2.08-.52-1.36-.82-2-.53-1.38-.83-2.07-.52-1.35-.82-2-.54-1.42-.85-2.11-.51-1.33-.8-2-.54-1.41-.85-2.1-.51-1.33-.8-2-.55-1.41-.86-2.1-.51-1.34-.8-2-.54-1.42-.86-2.1-.51-1.34-.8-2-.54-1.39-.84-2.08-.53-1.37-.82-2-.53-1.37-.83-2-.53-1.37-.82-2-.53-1.38-.83-2.07-.52-1.36-.82-2-.54-1.39-.84-2.07-.52-1.36-.82-2-.54-1.39-.84-2.07-.52-1.36-.82-2-.53-1.38-.83-2.06-.52-1.36-.82-2-.54-1.4-.84-2.08-.52-1.34-.81-2-.53-1.38-.83-2.07-.54-1.38-.84-2.07-.52-1.36-.82-2-.53-1.37-.83-2-.53-1.38-.84-2.06-.52-1.38-.83-2.06-.52-1.36-.82-2-.54-1.4-.85-2.09-.51-1.34-.8-2-.54-1.41-.85-2.09-.51-1.34-.8-2-.54-1.4-.84-2.08-.51-1.34-.8-2-.55-1.42-.86-2.12-.51-1.33-.8-2-.54-1.4-.84-2.08-.52-1.36-.82-2-.54-1.39-.84-2.08-.52-1.36-.82-2-.52-1.37-.82-2-.53-1.38-.83-2.07-.53-1.38-.83-2.06-.52-1.37-.82-2-.53-1.38-.84-2.07-.52-1.35-.81-2-.54-1.41-.85-2.1-.5-1.32-.79-2-.55-1.42-.86-2.13-.51-1.34-.8-2-.55-1.41-.86-2.1-.51-1.34-.8-2-.55-1.41-.86-2.1-.51-1.34-.8-2-.55-1.41-.85-2.1-.51-1.32-.8-2-.54-1.42-.85-2.11-.52-1.37-.82-2c-4.82-12.06-13.65-23.25-27.3-33.19-14.32-10.42-39.55-5.2-68.57,11C314,113.8,308.72,125.22,304,136.21v-1.66c-1.34.89-2.67,1.83-4,2.75v-13c-1.34.89-2.67,1.82-4,2.75v-8.9c-34,23.93-70.47,60-99.58,101.75-5,18.06-6.74,36.42-4.42,48-5.11-1.7-10.94-7.77-16.27-15.09-29.74,25.4-24.58,58.61-33.56,105.54L95.72,396l33.08,82.12A254.71,254.71,0,0,0,256,512c114.29,0,211.06-74.92,244-178.3C494.56,321.92,489.36,310.59,489.26,310.37Z"/>
  <polygon class="cls-3" points="122.09 396 177.12 350.14 166.88 337.86 97.1 396 122.09 396"/>
  <path class="cls-4" d="M336,244c16.83-16.83,39.3-27.93,55.55-23.9,33.5-46.34,41.78-94-4.08-127.34-14.32-10.42-39.55-5.2-68.57,11C310.92,120.2,302,140.08,296,156V118.22c-34,23.92-70.47,60-99.58,101.75-5,18.06-6.74,36.42-4.42,48-5.11-1.7-10.94-7.77-16.27-15.09C144,280,152,316,140.16,368.06,180,360,236,372,259.82,331.22c-3-.56-6.14-1.53-7.82-3.22,7.91-4,17.76-6,26.69-7.93,35.73-22.24,70.47-50.17,96.49-79.6C360,232,341,246.48,336,244Z"/>
  <path class="cls-5" d="M140.16,368.06C152,316,144,280,175.73,252.91c5.33,7.32,11.16,13.39,16.27,15.09-2.32-11.62-.58-30,4.42-48C225.53,178.22,262,142.14,296,118.21V156c6-15.92,14.92-35.8,22.88-52.26,29-16.16,54.25-21.38,68.57-11C376,148,220,308,140.16,368.06Z"/>
</svg>
