<svg id="Layer_1" data-name="Layer 1" xmlns="http://www.w3.org/2000/svg" viewBox="0 0 474.74 474.74">
  <defs>
    <style>
      .cls-1 {
        fill: #b9e8ea;
      }

      .cls-2 {
        fill: #f4bf4a;
      }

      .cls-3 {
        fill: #c6853e;
      }

      .cls-4 {
        fill: #dd9452;
      }

      .cls-5 {
        fill: #d38e3c;
      }

      .cls-6 {
        fill: #e89b4d;
      }

      .cls-7 {
        fill: #c17e36;
      }

      .cls-8 {
        fill: #e5a05c;
      }

      .cls-9 {
        fill: #efaf7b;
      }

      .cls-10 {
        fill: #cc842e;
      }

      .cls-11 {
        fill: #e59a4e;
      }
    </style>
  </defs>
  <title>pyramids</title>
  <circle class="cls-1" cx="237.37" cy="237.37" r="237.37"/>
  <path class="cls-2" d="M1.47,263.76c13.14,118.67,113.71,211,235.88,211s222.59-92.12,235.89-210.61c0-.12,0-.25,0-.37Z"/>
  <path class="cls-3" d="M348.93,168.88c-2.58-3.8-6.76-3.8-9.34,0L241.52,279.16H447Z"/>
  <path class="cls-4" d="M344.35,166a5.73,5.73,0,0,0-4.76,2.85L241.52,279.16h64S346,166.06,344.35,166Z"/>
  <path class="cls-5" d="M234.86,125.79c-3.8-5.6-10-5.6-13.76,0L76.62,288.25H379.33Z"/>
  <path class="cls-6" d="M228.17,121.59c-2.53,0-5.07,1.35-7,4.2L76.69,288.25H171S230.62,121.64,228.17,121.59Z"/>
  <path class="cls-7" d="M234.67,125.76c-3.8-5.6-10-5.6-13.76,0l-38.88,44L217,157.45l31.39,4.17,11.6,8.14,4.8-10Z"/>
  <path class="cls-8" d="M234.86,125.79c-3.8-5.6-10-5.6-13.76,0L184,167.63l34.26-13.21,30.31,5,11.6,8.14,4.14-8.67Z"/>
  <path class="cls-9" d="M220.94,125.64l-36.83,41.85,34.12-13.07,9.87-32.83A8.48,8.48,0,0,0,220.94,125.64Z"/>
  <path class="cls-10" d="M137.41,180.74c-2.74-4-7.18-4-9.93,0L23.3,297.88H241.59Z"/>
  <path class="cls-11" d="M132.54,177.7a6.09,6.09,0,0,0-5.05,3L23.3,297.88h68S134.3,177.74,132.54,177.7Z"/>
</svg>
