<svg id="Layer_1" data-name="Layer 1" xmlns="http://www.w3.org/2000/svg" viewBox="0 0 496.16 496.15">
  <defs>
    <style>
      .cls-1 {
        fill: #5184ce;
      }

      .cls-2 {
        fill: #d8dbba;
      }

      .cls-3 {
        fill: #6d6d68;
      }

      .cls-4 {
        fill: #e4e5cf;
      }
    </style>
  </defs>
  <title>scales</title>
  <path class="cls-1" d="M248.08,0C111.07,0,0,111.06,0,248.09S111.07,496.16,248.08,496.16,496.16,385.09,496.16,248.09,385.09,0,248.08,0Z" transform="translate(0 0)"/>
  <g>
    <rect class="cls-2" x="243.03" y="137.85" width="10.94" height="202.92"/>
    <path class="cls-2" d="M268.27,366.72c0-46.28-19.35-45.44-19.35-45.44s-19.35-.84-19.35,45.44c0,0,5,17.67-78.25,17.67v8.41H346.53v-8.41C263.23,384.39,268.27,366.72,268.27,366.72Z" transform="translate(0 0)"/>
    <path class="cls-2" d="M248.5,103.35c-4.63,0-10.81,9.81-10.81,31.73s22.47,21.92,22.47,0S253.13,103.35,248.5,103.35Z" transform="translate(0 0)"/>
  </g>
  <g>
    <path class="cls-3" d="M370,135.29a3.37,3.37,0,0,0-4.39,1.85L320.13,249.06a3.37,3.37,0,1,0,6.24,2.53L371.8,139.68A3.36,3.36,0,0,0,370,135.29Z" transform="translate(0 0)"/>
    <path class="cls-3" d="M432,249.06,386.53,137.15a3.37,3.37,0,0,0-6.24,2.53l45.44,111.91a3.37,3.37,0,0,0,6.24-2.53Z" transform="translate(0 0)"/>
  </g>
  <path class="cls-4" d="M319.32,248.22s.84,40,57.22,40,56.38-40,56.38-40H319.32Z" transform="translate(0 0)"/>
  <path class="cls-2" d="M388.08,107.14s0,.07,0,.1a13.23,13.23,0,0,0-9.45-3.79c-6.85,0-12.41,4.81-12.41,10.75s5.56,10.75,12.41,10.75l.49,0a18.54,18.54,0,0,1-9.61,2.69c-5.19,0-16.19-6.59-34.78-6.59-14.73,0-44.58,8.84-86.67,8.84v13.88c33.73,0,64.77-9.77,79.66-10.24,27.54-.86,35.9,4.21,44,7s23.14-4.19,23.14-17A23.07,23.07,0,0,0,388.08,107.14Z" transform="translate(0 0)"/>
  <g>
    <path class="cls-3" d="M176,249.06,130.59,137.15a3.37,3.37,0,0,0-6.24,2.53l45.44,111.91a3.37,3.37,0,1,0,6.24-2.53Z" transform="translate(0 0)"/>
    <path class="cls-3" d="M114,135.29a3.37,3.37,0,0,0-4.39,1.85L64.2,249.06a3.37,3.37,0,1,0,6.24,2.53l45.44-111.91A3.37,3.37,0,0,0,114,135.29Z" transform="translate(0 0)"/>
  </g>
  <path class="cls-4" d="M63.25,248.22s0,40,56.37,40,57.22-40,57.22-40H63.25Z" transform="translate(0 0)"/>
  <path class="cls-2" d="M161.41,121c-18.59,0-29.59,6.59-34.78,6.59a18.53,18.53,0,0,1-9.61-2.69l.49,0c6.85,0,12.41-4.81,12.41-10.75s-5.56-10.75-12.41-10.75a13.23,13.23,0,0,0-9.45,3.79s0-.07,0-.1a23.06,23.06,0,0,0-6.82,16.4c0,12.78,15,19.77,23.14,17s16.49-7.87,44-7c14.89.46,45.93,10.24,79.65,10.24V129.86C206,129.86,176.14,121,161.41,121Z" transform="translate(0 0)"/>
</svg>
