<?xml version="1.0" encoding="utf-8"?>
<!-- Generator: Adobe Illustrator 20.1.0, SVG Export Plug-In . SVG Version: 6.00 Build 0)  -->
<svg version="1.1" id="Layer_1" xmlns="http://www.w3.org/2000/svg" xmlns:xlink="http://www.w3.org/1999/xlink" x="0px" y="0px"
	 viewBox="0 0 504 504" style="enable-background:new 0 0 504 504;" xml:space="preserve">
<style type="text/css">
	.st0{fill:#233540;}
	.st1{fill:#aec7e8;}
	.st2{fill:#2C9984;}
</style>
<circle class="st0" cx="252" cy="252" r="252"/>
<circle class="st1" cx="252.2" cy="252" r="183"/>
<path class="st2" d="M358.8,103.3c-0.9,1.3-1.7,2.6-2.8,3.5c-7,5.8-16.4-5.6-25.5-4.8c-6.3,0.5-10.6,6.9-16.7,8.8
	c-7.6,2.3-17.1-2.6-23.2,2.5c-4.9,4.1-5,12.9-11.1,15c-2.8,0.9-5.9,0-8.7,0.8c-5.7,1.6-7.4,9.5-12.8,11.8c-3.2,1.4-6.8,0.5-10.2,0.4
	s-7.6,1.1-8.5,4.4c-0.9,3.1,1.3,7.1-1.1,9.2c-1.6,1.3-3.9,0.7-6,0.6c-8.2-0.6-15,9.4-11.4,16.8c7.1,1.6,14.9,3.1,21.4-0.1
	c5.9-2.9,9.5-9,14.2-13.7c4.7-4.7,12.6-7.8,17.7-3.6c-1.8,8.7,9.5,16.7,17.1,12.1c0.4,7.3,9.7,12.5,16.1,8.9
	c0.2,5.1-4.4,9.3-9.3,10.5s-10.1,0.1-15-1c0.8,6.1-6.6,10.6-12.7,9.8c-6.3-0.9-11.4-5.2-16.8-8.4c-6.4-3.9-16.6-3.4-22.5,1.3
	c-1.3,1-2.6,1.9-4.2,2.4c-2.8,0.8-5.9,0-8.8,0.4c-7.4,1-11.4,9-13.5,16.1c-2.6,8.4-4.3,17.5-1.2,25.7c3.9,10.4,15.7,16.9,26.8,15.6
	c4.8-0.6,9.8-2.4,14.2-0.4c3.1,1.4,5.2,4.5,6.8,7.5c13.7,25.9,6.9,59.3,21.8,84.5c1.7,2.9,3.9,5.8,8.6,4.5c2.3-0.7,4.2-2.2,5.6-4.1
	c6.2-8.4,12.3-16.8,18.5-25.2c1.1-1.5,2.2-3,2.7-4.8c0.6-2.2,0.1-4.7,1-6.9c0.6-1.4,1.9-2.5,2.9-3.7c8.7-10,2.4-26.5,8.5-38.2
	c2.9-5.5,8.4-9.8,11.7-14.9c2-3.1,0.8-7.1-2.3-9c-2.9-1.7-5.3-4.5-7.6-7.1c-8.5-9.9-17.4-20.7-19.1-33.7c6-1.2,3.9-0.8,9.8-2
	c2.8,9.5,7.3,18.4,13.1,26.4c3.2,4.4,8.7,8.9,13.5,6.5l0.9-6.3c3.1-1.1,6.1-2.2,9.2-3.3c2.6-3.2,0.1-8.2-3.3-10.7
	c-4.1-3.1-9.6-4.8-10.9-10.6c-0.7-3.4,1.4-6.3,4.8-6c3,0.3,4.2,3.4,6.1,5.5c2.8,2.9,7.2,3.4,11.2,4.3c9.2,2,17.7,7,24.1,13.9
	c5.3,7.3,9.3,15.4,12,24c0.3,1.1,1.4,1.9,2.6,1.8c0,0,0,0,0.1,0c1.6-0.1,2.8-1.5,2.4-3.1c-0.8-3.9,1.1-8.5,3.1-12.3
	c3.6-7,10-15.2,17.5-12.7c-0.7-1.4-0.2-3.4,1.1-4.3c3.3-2.4,7-0.1,10,3.3C420.6,167.1,394.5,128.9,358.8,103.3z"/>
<g>
	<path class="st1" d="M109.2,193.5c-0.6,0.4-1.5,0.7-2.4,0.9c-0.4,1.8-0.7,3.5-1,5.2C107.4,197.9,108.6,195.7,109.2,193.5z"/>
	<path class="st1" d="M128.7,117.9c0.4-0.5,0.6-1.1,0.8-1.7c-1.4,1.2-2.7,2.5-4,3.7C126.7,119.7,127.9,119.1,128.7,117.9z"/>
	<path class="st1" d="M109.7,191c-0.1,0.8-0.3,1.7-0.5,2.5C110.2,192.8,110.6,191.9,109.7,191z"/>
</g>
<g>
	<path class="st2" d="M77.4,198.1c7.9-4.6,17.6-5.5,26.5-3.6c0.9,0.2,2,0.2,3,0c2.2-9.9,6.3-19.9,15.7-22.6c2.2-0.6,4.6-0.8,6.7-1.9
		c1.7-1,2.9-2.6,4.2-4.1c6.3-7.2,15-12.2,24.3-14c-1.4-6,7-8.9,13.2-9.1c1.7-3.3,0-7.2-1.6-10.5c-2.2-4.3-4.6-8.6-8.3-11.6
		s-9.2-4.4-13.4-2.1c-3.5,1.9-5.5,5.8-8.5,8.4c-5.5,4.7-14.5,4.4-19.7-0.6c-19.1,20.2-33.6,44.7-42,71.9
		C77.3,198.1,77.3,198.1,77.4,198.1z"/>
	<path class="st2" d="M104.1,245.9c1.6,0.7,3,1.8,3.9,3.3c3.3,5.5-2.6,9.8-5.6,14.4c-6.7,10.1,0.4,23.8,9.3,31.9
		c6,5.6,13.3,10.6,15.9,18.4c1.5,4.6,1.2,9.6,1.3,14.5c0.2,15.5,4.3,30.7,8.4,45.7c1.2,4.2,2.4,8.7,6.2,11.3c2,1.4,4.6,2,6.9,1.1
		c4.8-1.9,4.7-8,2.9-12.4c-1.6-4-4.2-7.8-4.2-12c0.1-8.6,10.7-16.8,6.1-24.2l0,0c9.7,0.5,17.9-7.2,18-17v-3.8
		c5.6,2.6,11.7-3.3,13.3-9.3s1.1-12.6,4.3-17.9c1.3-2,3-3.8,3.8-6.1c1.9-5.8-3.7-11.4-9.4-13.5s-12.2-2.7-16.9-6.6
		c-2.7-2.3-4.5-5.5-6.7-8.2c-5.8-7.4-14.6-11.8-23-16c-3.1-1.5-6.3-3.1-9.7-3.5c-6.6-0.8-13.1,2.6-19.8,2.5
		c-5-0.1-10.3-4.4-10.8-8.7c-0.3-2.3-1.9-4.2-3.9-5.3c-3.4-1.9-5.9-5.8-5.9-9.7c0-1.8-1.3-3.5-3.1-3.7h-0.1
		c-1.7-0.2-3.3,0.9-3.7,2.5c-0.7,3.1-4.7,5.5-7.9,4.3c-0.5-0.2-1-0.4-1.4-0.7c-0.9,4.5-1.6,9.1-2.1,13.7c1.6,0.8,3.3,1.5,4.9,2.2
		L104.1,245.9z"/>
</g>
</svg>
