<?xml version="1.0" encoding="utf-8"?>
<!-- Generator: Adobe Illustrator 20.1.0, SVG Export Plug-In . SVG Version: 6.00 Build 0)  -->
<svg version="1.1" id="Layer_1" xmlns="http://www.w3.org/2000/svg" xmlns:xlink="http://www.w3.org/1999/xlink" x="0px" y="0px"
	 viewBox="0 0 512 512" style="enable-background:new 0 0 512 512;" xml:space="preserve">
<style type="text/css">
	.st0{fill:#FFD05B;}
	.st1{fill:#233540;}
	.st2{fill:#1C2A33;}
	.st3{fill:#406A80;}
	.st4{fill:#395F73;}
	.st5{fill:#E66356;}
	.st6{fill:#F5F5F5;}
	.st7{fill:#CC584C;}
</style>
<circle class="st0" cx="256" cy="256" r="256"/>
<path class="st1" d="M112,106.3c0,13.2,10.8,24,24,24h188h24v24c0,0,0,148,0,200c0,4-4,8-8,8c-52,0-204,0-204,0
	c-13.2,0-24-10.8-24-24v-184V106.3z"/>
<g>
	<rect x="152" y="130.3" class="st2" width="8" height="232"/>
	<rect x="176" y="178.3" class="st2" width="8" height="184"/>
	<path class="st2" d="M348,146.3v140c0,8.8-7.2,16-16,16H192c-8.8,0-16-7.2-16-16v-112c0-16,12-28,28-28H348z"/>
</g>
<path class="st3" d="M348,90.3c0-4-4-8-8-8s-16,0-16,0H136c-13.2,0-24,10.8-24,24s10.8,24,24,24h188h24
	C348,130.3,348,100.3,348,90.3z"/>
<rect x="152" y="82.3" class="st4" width="8" height="48"/>
<path class="st5" d="M136,130.3h16v-48h-16c-13.2,0-24,10.8-24,24S122.8,130.3,136,130.3z"/>
<path class="st6" d="M136,122.3c-8.7,0-16-7.3-16-16s7.3-16,16-16h212v32H136z"/>
<path class="st7" d="M136,362.3h16v-232h-16c-13.2,0-24-10.8-24-24v48v184C112,351.5,122.8,362.3,136,362.3z"/>
<g>
	<rect x="212" y="234.3" class="st6" width="80" height="8"/>
	<rect x="192" y="234.3" class="st6" width="104" height="8"/>
</g>
<path class="st1" d="M184,178.3c0,13.2,10.8,24,24,24h176h24v24c0,0,0,148,0,200c0,4-4,8-8,8c-52,0-192,0-192,0
	c-13.2,0-24-10.8-24-24v-184V178.3z"/>
<rect x="224" y="202.3" class="st2" width="8" height="232"/>
<path class="st3" d="M408,162.3c0-4-4-8-8-8s-16,0-16,0H208c-13.2,0-24,10.8-24,24s10.8,24,24,24h176h24
	C408,202.3,408,172.3,408,162.3z"/>
<rect x="224" y="154.3" class="st4" width="8" height="48"/>
<path class="st5" d="M208,202.3h16v-48h-16c-13.2,0-24,10.8-24,24S194.8,202.3,208,202.3z"/>
<path class="st6" d="M208,194.3c-8.7,0-16-7.3-16-16s7.3-16,16-16h200v32H208z"/>
<path class="st7" d="M208,434.3h16v-232h-16c-13.2,0-24-10.8-24-24v48v184C184,423.5,194.8,434.3,208,434.3z"/>
<g>
	<rect x="284" y="290.3" class="st6" width="64" height="8"/>
	<rect x="264" y="306.3" class="st6" width="104" height="8"/>
</g>
</svg>
