<?xml version="1.0" encoding="utf-8"?>
<!-- Generator: Adobe Illustrator 20.1.0, SVG Export Plug-In . SVG Version: 6.00 Build 0)  -->
<svg version="1.1" id="Layer_1" xmlns="http://www.w3.org/2000/svg" xmlns:xlink="http://www.w3.org/1999/xlink" x="0px" y="0px"
	 viewBox="0 0 512 512" style="enable-background:new 0 0 512 512;" xml:space="preserve">
<style type="text/css">
	.st0{fill:#0575A5;}
	.st1{fill:#025E90;}
	.st2{fill:#FF5419;}
	.st3{fill:#FFC61B;}
	.st4{fill:#D48B07;}
	.st5{fill:#FFEDB5;}
	.st6{fill:#FEE187;}
	.st7{fill:#EAA22F;}
	.st8{fill:#366695;}
</style>
<g>
	<circle class="st0" cx="256" cy="256" r="256"/>
	<circle class="st0" cx="256" cy="256" r="256"/>
</g>
<path class="st1" d="M398.2,170.7c0,0-6.4,4.1-17.4,11.1l-39.5-39.5c-0.6,0.6-6.5,6.5-14.2,14.2l-42.7-42.7
	c0,1.3-57.7,58.3-85.2,85.4l-57-57c0.7,0.7-56.9,85.3-56.9,85.3l87,87c-49.5,31.5-87.4,55.6-87,55.2l140.4,140.4
	c9.9,1.2,20,1.8,30.2,1.8c132.3,0,241.1-100.3,254.6-229L398.2,170.7z"/>
<polygon class="st2" points="341.3,170.7 341.3,142.2 284.4,142.2 284.4,113.8 199.1,113.8 199.1,170.7 142.2,170.7 142.2,142.2 
	85.3,142.2 85.3,369.8 142.2,369.8 199.1,369.8 284.4,369.8 341.3,369.8 398.2,369.8 398.2,170.7 "/>
<rect x="85.3" y="142.2" class="st3" width="56.9" height="227.6"/>
<rect x="142.2" y="170.7" class="st4" width="56.9" height="199.1"/>
<polygon class="st5" points="199.1,113.8 199.1,192.2 199.1,251.7 199.1,369.8 284.4,369.8 284.4,251.7 284.4,192.2 284.4,113.8 "/>
<g>
	<polygon class="st6" points="242.2,113.8 242.2,369.8 284.4,369.8 284.4,251.7 284.4,192.2 284.4,113.8 	"/>
	<rect x="199.1" y="192.2" class="st6" width="85.3" height="59.5"/>
</g>
<rect x="242.2" y="192.2" class="st3" width="42.2" height="59.5"/>
<rect x="284.4" y="142.2" class="st7" width="56.9" height="227.6"/>
<rect x="341.3" y="170.7" class="st2" width="56.9" height="199.1"/>
<circle class="st6" cx="369.8" cy="335.3" r="11.2"/>
<g>
	<path class="st8" d="M128,202.6H99.6c-1.9,0-3.4-1.5-3.4-3.4s1.5-3.4,3.4-3.4H128c1.9,0,3.4,1.5,3.4,3.4S129.9,202.6,128,202.6z"/>
	<path class="st8" d="M128,223.9H99.6c-1.9,0-3.4-1.5-3.4-3.4s1.5-3.4,3.4-3.4H128c1.9,0,3.4,1.5,3.4,3.4
		C131.4,222.3,129.9,223.9,128,223.9z"/>
	<path class="st8" d="M312.9,287.9c-1.9,0-3.4-1.5-3.4-3.4v-85.3c0-1.9,1.5-3.4,3.4-3.4s3.4,1.5,3.4,3.4v85.3
		C316.3,286.3,314.8,287.9,312.9,287.9z"/>
	<path class="st8" d="M312.9,344.8c-1.9,0-3.4-1.5-3.4-3.4v-28.4c0-1.9,1.5-3.4,3.4-3.4s3.4,1.5,3.4,3.4v28.4
		C316.3,343.2,314.8,344.8,312.9,344.8z"/>
	<path class="st8" d="M184.9,344.8h-28.4c-1.9,0-3.4-1.5-3.4-3.4s1.5-3.4,3.4-3.4h28.4c1.9,0,3.4,1.5,3.4,3.4
		S186.8,344.8,184.9,344.8z"/>
</g>
</svg>
