<?xml version="1.0" encoding="utf-8"?>
<!-- Generator: Adobe Illustrator 20.1.0, SVG Export Plug-In . SVG Version: 6.00 Build 0)  -->
<svg version="1.1" id="Layer_1" xmlns="http://www.w3.org/2000/svg" xmlns:xlink="http://www.w3.org/1999/xlink" x="0px" y="0px"
	 viewBox="0 0 512 512" style="enable-background:new 0 0 512 512;" xml:space="preserve">
<style type="text/css">
	.st0{fill:#0575A5;}
	.st1{fill:#025E90;}
	.st2{fill:#FFFFFF;}
	.st3{fill:#34495E;}
	.st4{fill:#1A1B1C;}
	.st5{fill:#CEE2F2;}
	.st6{fill:#B8D1E6;}
	.st7{fill:#FF9D4D;}
</style>
<circle class="st0" cx="256" cy="256" r="256"/>
<path class="st1" d="M510.8,280.2L343.7,113c-0.2-0.2-0.4-0.4-0.6-0.7c-0.1-0.1-0.1-0.1-0.2-0.2c-1.7-1.6-3.9-2.4-6.1-2.4h-96.4h-65
	c-2.3,0-4.6,0.9-6.3,2.6c-0.7,0.7-1.3,1.5-1.7,2.4l0,0c0,0.1-0.1,0.2-0.1,0.2c-0.2,0.4-0.3,0.8-0.4,1.2c-0.1,0.2-0.1,0.4-0.2,0.7
	c-0.1,0.6-0.2,1.2-0.2,1.8c0,2.3,0.9,4.6,2.6,6.4l8.1,8.1v0.8c0,2.7,0.1,5.4,0.2,8c0,0.8,0.1,1.6,0.1,2.4c0.1,1.8,0.2,3.6,0.4,5.3
	c0.1,0.8,0.1,1.7,0.2,2.5c0.2,1.8,0.4,3.5,0.6,5.3c0.1,0.6,0.2,1.3,0.3,1.9c0.3,2.3,0.7,4.5,1.2,6.7c0.1,0.6,0.3,1.1,0.4,1.7
	c0.4,1.6,0.8,3.2,1.2,4.8c0.2,0.8,0.4,1.5,0.7,2.3c0.4,1.4,0.9,2.7,1.3,4.1c0.2,0.7,0.5,1.5,0.8,2.2c0.6,1.6,1.2,3.2,1.9,4.8
	c0.2,0.4,0.3,0.8,0.5,1.1c0.8,1.9,1.7,3.7,2.7,5.5c0.3,0.6,0.7,1.3,1.1,1.9c0.7,1.2,1.4,2.4,2.1,3.6c0.4,0.7,0.8,1.4,1.3,2
	c0.8,1.2,1.6,2.4,2.5,3.6c0.4,0.6,0.8,1.1,1.2,1.7c1.3,1.7,2.6,3.4,4,5.1c0.3,0.4,0.6,0.7,0.9,1.1c1.2,1.4,2.4,2.7,3.6,4.1
	c0.5,0.6,1,1.1,1.5,1.6c0.6,0.6,1.1,1.2,1.9-3.5l38,38c1.9,13.1-7.5,16.4-16.1,22c-38.6,30-54.3,56.3-54.3,104.4v6.3h-1.8
	c-2.3,0-4.6,0.8-6.3,2.6c-1.8,1.8-2.6,4-2.6,6.4c0,2.2,0.9,4.6,2.6,6.3l111.1,111.1C402.2,499.4,499.4,402.3,510.8,280.2z"/>
<path class="st2" d="M280.6,238.3c38.6-29.9,54.3-56.3,54.3-104.4v-6.3H177.1v6.3c0,48.1,15.7,74.4,54.3,104.4
	c7.8,6.2,16,10,16,17.7c0,7.7-8.1,11.5-16,17.7c-38.6,30-54.3,56.3-54.3,104.4v6.3h157.8v-6.3c0-48.1-15.7-74.4-54.3-104.4
	c-7.8-6.1-16-9.9-16-17.7C264.6,248.3,272.8,244.5,280.6,238.3z"/>
<g>
	<path class="st3" d="M175.3,127.6h161.4c2.3,0,4.6-0.9,6.3-2.6c1.8-1.8,2.6-4,2.6-6.4c0-2.3-0.9-4.6-2.6-6.3
		c-1.7-1.8-4-2.6-6.3-2.6H175.3c-2.3,0-4.6,0.9-6.3,2.6c-1.7,1.7-2.6,4-2.6,6.3c0,2.3,0.9,4.6,2.6,6.4
		C170.7,126.8,173,127.6,175.3,127.6z"/>
	<path class="st3" d="M336.7,384.4H175.3c-2.3,0-4.6,0.8-6.3,2.6c-1.7,1.8-2.6,4-2.6,6.3c0,2.3,0.9,4.6,2.6,6.3
		c1.7,1.7,4.1,2.6,6.3,2.6h161.4c2.3,0,4.6-0.9,6.3-2.6c1.8-1.8,2.6-4.1,2.6-6.3c0-2.3-0.9-4.6-2.6-6.3
		C341.3,385.2,339,384.4,336.7,384.4z"/>
</g>
<rect x="189.2" y="127.6" class="st4" width="133.7" height="6.3"/>
<path class="st5" d="M280.6,238.3c38.6-29.9,54.3-56.3,54.3-104.4v-6.3H177.1v6.3c0,48.1,15.7,74.4,54.3,104.4
	c7.8,6.2,16,10,16,17.7c0,7.7-8.1,11.5-16,17.7c-38.6,30-54.3,56.3-54.3,104.4v6.3h157.8v-6.3c0-48.1-15.7-74.4-54.3-104.4
	c-7.8-6.1-16-9.9-16-17.7C264.6,248.3,272.8,244.5,280.6,238.3z M258.4,256c0,9.8,8.6,15.3,15.5,20.4c0.9,0.7,1.9,1.4,2.9,2.3
	c38,30.1,46,56.7,46,99.4H189.2c0-42.7,8-69.3,46-99.4c1-0.8,2-1.6,2.9-2.3c6.9-5.1,15.5-10.6,15.5-20.4c0-9.9-8.6-15.3-15.5-20.4
	c-0.9-0.7-1.9-1.5-2.9-2.2c-38-30.2-46-56.7-46-99.5h133.7c0,42.8-8,69.3-46,99.5c-1,0.7-2,1.5-2.9,2.2
	C267,240.8,258.4,246.2,258.4,256z"/>
<rect x="189.2" y="127.6" class="st6" width="133.7" height="6.3"/>
<path class="st7" d="M257.6,258c0.4-3.7,1.3-6.9,2.2-8.6c2.8-5.9,8.9-9.9,14-13.8c0.9-0.7,1.9-1.5,2.9-2.2
	c13.2-10.5,22.7-20.4,29.6-30.8c-15.8,2.3-32.8,3.6-50.4,3.6c-17.7,0-34.6-1.3-50.4-3.6c6.9,10.4,16.4,20.4,29.6,30.8
	c1,0.7,2,1.5,2.9,2.2c5.1,3.8,11.3,7.8,14,13.8c1,1.7,1.8,4.9,2.2,8.6 M190,358.4c-0.5,6.2-0.8,12.7-0.8,19.7h133.7
	c0-7-0.3-13.5-0.8-19.7c-24.1-0.4-43.7-3.9-61.9-10.6c0.5-0.4,1.3-0.8,2.1-1 M252.8,335.3 M241.6,351.2"/>
</svg>
