<?xml version="1.0" encoding="utf-8"?>
<!-- Generator: Adobe Illustrator 20.1.0, SVG Export Plug-In . SVG Version: 6.00 Build 0)  -->
<svg version="1.1" id="Layer_1" xmlns="http://www.w3.org/2000/svg" xmlns:xlink="http://www.w3.org/1999/xlink" x="0px" y="0px"
	 viewBox="0 0 512 512" style="enable-background:new 0 0 512 512;" xml:space="preserve">
<style type="text/css">
	.st0{fill:#FFD05B;}
	.st1{fill:#DDB04B;}
	.st2{fill:#FFFFFF;}
	.st3{fill:#FF6262;}
	.st4{fill:#FF314F;}
	.st5{fill:#A30F44;}
	.st6{fill:#075A77;}
	.st7{fill:#0575A5;}
	.st8{fill:#0B4554;}
</style>
<circle class="st0" cx="256" cy="256" r="256"/>
<path class="st1" d="M501.7,328.1L339,165.3l-201.8,97.6l10.3,10.3l-34.1,14.1l38.4,38.4l-6.6,2.8l21.1,21.1c0,0-0.9,6.5,3.4,13
	c4.3,6.5,8.2,17.2,3.3,27.3s-9.5,11.3-7,19.7c2.4,8.3,8.5,18.1,8.2,22c-0.3,3.9-1,3.9-1,3.9l76.6,76.6c2,0,4.1,0.1,6.1,0.1
	C372.3,512,470.5,434.4,501.7,328.1z"/>
<path class="st2" d="M178.4,435.3h-5.2c0-6.3-2.2-9.3-4.7-12.7c-2.7-3.7-5.7-7.8-5.7-15.7c0-8,3-12.1,5.7-15.7
	c2.5-3.5,4.7-6.4,4.7-12.7c0-6.3-2.2-9.2-4.7-12.7c-2.7-3.7-5.7-7.8-5.7-15.7c0-8,3-12.1,5.7-15.7c2.5-3.5,4.7-6.4,4.7-12.7h5.2
	c0,8-3,12.1-5.7,15.7c-2.5,3.5-4.7,6.4-4.7,12.7c0,6.3,2.2,9.2,4.7,12.7c2.7,3.7,5.7,7.8,5.7,15.7c0,8-3,12.1-5.7,15.7
	c-2.5,3.5-4.7,6.4-4.7,12.7c0,6.3,2.2,9.2,4.7,12.7C175.4,423.2,178.4,427.3,178.4,435.3z"/>
<polygon class="st3" points="145.3,328.4 170.7,284.4 196,328.4 "/>
<g>
	<polygon class="st4" points="170.7,284.4 169.8,285.9 169.8,328.4 196,328.4 	"/>
	<ellipse class="st4" cx="170.7" cy="213.3" rx="85.3" ry="99.6"/>
</g>
<path class="st5" d="M170.7,113.8c-0.3,0-0.6,0-0.9,0v199.1c0.3,0,0.6,0,0.9,0c47.1,0,85.3-44.6,85.3-99.6
	C256,158.4,217.8,113.8,170.7,113.8z"/>
<path class="st2" d="M292.2,463.7H287c0-6.3-2.2-9.3-4.7-12.7c-2.7-3.7-5.7-7.8-5.7-15.7c0-8,3-12.1,5.7-15.7
	c2.5-3.5,4.7-6.4,4.7-12.7c0-6.3-2.2-9.2-4.7-12.7c-2.7-3.7-5.7-7.8-5.7-15.7c0-8,3-12.1,5.7-15.7c2.5-3.5,4.7-6.4,4.7-12.7h5.2
	c0,8-3,12.1-5.7,15.7c-2.5,3.5-4.7,6.4-4.7,12.7c0,6.3,2.2,9.2,4.7,12.7c2.7,3.7,5.7,7.8,5.7,15.7c0,8-3,12.1-5.7,15.7
	c-2.5,3.5-4.7,6.4-4.7,12.7c0,6.3,2.2,9.2,4.7,12.7C289.2,451.6,292.2,455.8,292.2,463.7z"/>
<polygon class="st6" points="259.1,356.8 284.4,312.9 309.8,356.8 "/>
<ellipse class="st7" cx="284.4" cy="241.8" rx="85.3" ry="99.6"/>
<polygon class="st8" points="284.4,312.9 283.6,314.4 283.6,356.8 309.8,356.8 "/>
<path class="st6" d="M284.4,142.2c-0.3,0-0.6,0-0.9,0v199.1c0.3,0,0.6,0,0.9,0c47.1,0,85.3-44.6,85.3-99.6
	C369.8,186.8,331.6,142.2,284.4,142.2z"/>
</svg>
