<?xml version="1.0" encoding="utf-8"?>
<!-- Generator: Adobe Illustrator 20.1.0, SVG Export Plug-In . SVG Version: 6.00 Build 0)  -->
<svg version="1.1" id="Layer_1" xmlns="http://www.w3.org/2000/svg" xmlns:xlink="http://www.w3.org/1999/xlink" x="0px" y="0px"
	 viewBox="0 0 473.9 473.9" style="enable-background:new 0 0 473.9 473.9;" xml:space="preserve">
<style type="text/css">
	.st0{fill:#EE6559;}
	.st1{fill:#806749;}
	.st2{fill:#5F4D37;}
	.st3{fill:#FFDA44;}
</style>
<circle class="st0" cx="237" cy="237" r="237"/>
<path class="st1" d="M301.8,368.3l51-178.5c0.7-2.4,0.3-5.1-1-7.2l-49.2-79.3c-1.6-2.6-4.5-4.3-7.6-4.3H179c-3.1,0-6,1.6-7.6,4.3
	l-49.2,79.3c-1.3,2.2-1.7,4.8-1,7.2l51,178.5c1.1,3.9,4.6,6.5,8.6,6.5h112.3C297.1,374.9,300.7,372.2,301.8,368.3z"/>
<path class="st2" d="M236.9,99v275.8h56.2c4,0,7.5-2.7,8.6-6.5l51-178.5c0.7-2.4,0.3-5.1-1-7.2l-49.2-79.3c-1.6-2.6-4.5-4.3-7.6-4.3
	H236.9z"/>
<path class="st3" d="M201,189h27v-27c0-5,4-9,9-9c5,0,9,4,9,9v27h27c5,0,9,4,9,9c0,5-4,9-9,9h-27v80.9c0,5-4,9-9,9c-5,0-9-4-9-9V207
	h-27c-5,0-9-4-9-9C192,193,196,189,201,189z"/>
</svg>
