<?xml version="1.0" encoding="utf-8"?>
<!-- Generator: Adobe Illustrator 20.1.0, SVG Export Plug-In . SVG Version: 6.00 Build 0)  -->
<svg version="1.1" id="Layer_1" xmlns="http://www.w3.org/2000/svg" xmlns:xlink="http://www.w3.org/1999/xlink" x="0px" y="0px"
	 viewBox="0 0 473.9 473.9" style="enable-background:new 0 0 473.9 473.9;" xml:space="preserve">
<style type="text/css">
	.st0{fill:#ee6559;}
	.st1{fill:#233540;}
	.st2{fill:#1D7793;}
	.st3{fill:#C7D8DD;}
	.st4{fill:#F0F1AF;}
	.st5{fill:#E9E8A3;}
	.st6{fill:#2B6277;}
</style>
<circle class="st0" cx="237" cy="237" r="237"/>
<g>
	<ellipse class="st1" cx="305.4" cy="275.3" rx="54.9" ry="51.8"/>
	<rect x="168.2" y="223.6" class="st1" width="139.7" height="103.5"/>
</g>
<ellipse class="st2" cx="168.2" cy="275.3" rx="54.9" ry="51.8"/>
<ellipse class="st3" cx="168.2" cy="275.3" rx="17.5" ry="16.5"/>
<path class="st4" d="M360.3,276c0-27.8-23.2-54.3-52.4-55.5l-149.7-0.1c30.3,0,64.9,27,64.9,55.6c0,15.2,0.2,35.3,0.3,50.8
	c0,0.1,0,0.2,0,0.4v29.2c0,7.2,5.9,13.1,13.1,13.1h110.1c7.2,0,13.1-5.9,13.1-13.1v-29.2c0-0.4-0.1-0.7-0.1-1.1
	C359.9,310.6,360.3,290.7,360.3,276z"/>
<path class="st5" d="M360.3,276c0-27.8-23.2-54.3-52.4-55.5l-149.7-0.1c30.3,0,64.9,27,64.9,55.6H360.3z"/>
<g>
	<ellipse class="st6" cx="305.4" cy="171.2" rx="54.9" ry="51.8"/>
	<rect x="168.2" y="119.4" class="st6" width="139.7" height="103.5"/>
</g>
<path class="st1" d="M360.3,171.2l-192.1,0V223h139.7v-0.1C337,221.6,360.3,199,360.3,171.2z"/>
<ellipse class="st2" cx="168.2" cy="171.2" rx="54.9" ry="51.8"/>
<ellipse class="st3" cx="168.2" cy="171.2" rx="17.5" ry="16.5"/>
</svg>
