<svg id="Layer_1" data-name="Layer 1" xmlns="http://www.w3.org/2000/svg" viewBox="0 0 496.8 326.4">
  <defs>
    <style>
      .cls-1, .cls-7 {
        fill: #c0ccc7;
      }

      .cls-1, .cls-2, .cls-4, .cls-5, .cls-6 {
        opacity: 0.3;
      }

      .cls-3 {
        fill: #b2bfb9;
      }

      .cls-4, .cls-8 {
        fill: #d3ddd9;
      }

      .cls-5, .cls-9 {
        fill: #5c605f;
      }

      .cls-10, .cls-6 {
        fill: #464948;
      }
    </style>
  </defs>
  <title>keys-opacity</title>
  <path class="cls-1" d="M326.4,226a16.9,16.9,0,0,1-16.8,16.8h-124A16.9,16.9,0,0,1,168.8,226V102a16.9,16.9,0,0,1,16.8-16.8h124A16.9,16.9,0,0,1,326.4,102Z" transform="translate(0 -85.2)"/>
  <g class="cls-2">
    <path class="cls-3" d="M326.4,226a16.9,16.9,0,0,1-16.8,16.8h-124A16.9,16.9,0,0,1,168.8,226" transform="translate(0 -85.2)"/>
    <path class="cls-3" d="M169.6,102a16.9,16.9,0,0,1,16.8-16.8h124A16.9,16.9,0,0,1,327.2,102V226a16.9,16.9,0,0,1-16.8,16.8" transform="translate(0 -85.2)"/>
  </g>
  <path class="cls-4" d="M169.6,102a16.9,16.9,0,0,1,16.8-16.8h124A16.9,16.9,0,0,1,327.2,102" transform="translate(0 -85.2)"/>
  <path class="cls-5" d="M274.4,196.4l-23.2-36a4.5,4.5,0,0,0-7.2,0l-22.4,36.8c-.8,1.6-.8,3.2,0,4a4.4,4.4,0,0,0,4,2.4h44.8a4.4,4.4,0,0,0,4-2.4C275.2,199.6,274.4,198,274.4,196.4Z" transform="translate(0 -85.2)"/>
  <path class="cls-6" d="M251.2,174.8a4.5,4.5,0,0,0-7.2,0l-16.8,28h41.6Z" transform="translate(0 -85.2)"/>
  <path class="cls-1" d="M326.4,394.8a16.9,16.9,0,0,1-16.8,16.8h-124a16.9,16.9,0,0,1-16.8-16.8v-124A16.9,16.9,0,0,1,185.6,254h124a16.9,16.9,0,0,1,16.8,16.8Z" transform="translate(0 -85.2)"/>
  <g class="cls-2">
    <path class="cls-3" d="M326.4,394.8a16.9,16.9,0,0,1-16.8,16.8h-124a16.9,16.9,0,0,1-16.8-16.8" transform="translate(0 -85.2)"/>
    <path class="cls-3" d="M169.6,270.8A16.9,16.9,0,0,1,186.4,254h124a16.9,16.9,0,0,1,16.8,16.8v124a16.9,16.9,0,0,1-16.8,16.8" transform="translate(0 -85.2)"/>
  </g>
  <path class="cls-4" d="M169.6,270.8A16.9,16.9,0,0,1,186.4,254h124a16.9,16.9,0,0,1,16.8,16.8" transform="translate(0 -85.2)"/>
  <path class="cls-5" d="M221.6,332.4,244,369.2a4.5,4.5,0,0,0,7.2,0l22.4-36.8c.8-1.6.8-3.2,0-4a4.4,4.4,0,0,0-4-2.4H224.8a4.4,4.4,0,0,0-4,2.4C220.8,330,221.6,331.6,221.6,332.4Z" transform="translate(0 -85.2)"/>
  <path class="cls-6" d="M244.8,354a4.5,4.5,0,0,0,7.2,0l16.8-28H227.2Z" transform="translate(0 -85.2)"/>
  <path class="cls-7" d="M156.8,394.8A16.9,16.9,0,0,1,140,411.6H16.8A16.9,16.9,0,0,1,0,394.8v-124A16.9,16.9,0,0,1,16.8,254h124a16.9,16.9,0,0,1,16.8,16.8v124Z" transform="translate(0 -85.2)"/>
  <g>
    <path class="cls-3" d="M156.8,394.8A16.9,16.9,0,0,1,140,411.6H16.8A16.9,16.9,0,0,1,0,394.8" transform="translate(0 -85.2)"/>
    <path class="cls-3" d="M0,270.8A16.9,16.9,0,0,1,16.8,254h124a16.9,16.9,0,0,1,16.8,16.8v124a16.9,16.9,0,0,1-16.8,16.8" transform="translate(0 -85.2)"/>
  </g>
  <path class="cls-8" d="M0,270.8A16.9,16.9,0,0,1,16.8,254h124a16.9,16.9,0,0,1,16.8,16.8" transform="translate(0 -85.2)"/>
  <path class="cls-9" d="M94.4,322.8,57.6,345.2a4.5,4.5,0,0,0,0,7.2l36.8,22.4c1.6.8,3.2.8,4,0a4.29,4.29,0,0,0,2.4-3.2V326.8a4.4,4.4,0,0,0-2.4-4C97.6,322,96,322,94.4,322.8Z" transform="translate(0 -85.2)"/>
  <path class="cls-10" d="M72.8,345.2a4.5,4.5,0,0,0,0,7.2l28,16.8V327.6Z" transform="translate(0 -85.2)"/>
  <path class="cls-7" d="M496,394.8a16.9,16.9,0,0,1-16.8,16.8h-124a16.9,16.9,0,0,1-16.8-16.8v-124A16.9,16.9,0,0,1,355.2,254h124A16.9,16.9,0,0,1,496,270.8Z" transform="translate(0 -85.2)"/>
  <g>
    <path class="cls-3" d="M496,394.8a16.9,16.9,0,0,1-16.8,16.8h-124a16.9,16.9,0,0,1-16.8-16.8" transform="translate(0 -85.2)"/>
    <path class="cls-3" d="M339.2,270.8A16.9,16.9,0,0,1,356,254H480a16.9,16.9,0,0,1,16.8,16.8v124A16.9,16.9,0,0,1,480,411.6" transform="translate(0 -85.2)"/>
  </g>
  <path class="cls-8" d="M339.2,270.8A16.9,16.9,0,0,1,356,254H480a16.9,16.9,0,0,1,16.8,16.8" transform="translate(0 -85.2)"/>
  <path class="cls-9" d="M401.6,374.8l36.8-22.4a4.5,4.5,0,0,0,0-7.2l-36.8-22.4c-1.6-.8-3.2-.8-4,0s-2.4,2.4-2.4,4v44.8a4.4,4.4,0,0,0,2.4,4C399.2,376.4,400,375.6,401.6,374.8Z" transform="translate(0 -85.2)"/>
  <path class="cls-10" d="M423.2,352.4a4.5,4.5,0,0,0,0-7.2l-28-16.8V370Z" transform="translate(0 -85.2)"/>
</svg>
